# xmcd CD database file
#
# Track frame offsets:
#	150
#	21750
#	45450
#	64800
#	84750
#	106350
#	130050
#	150825
#	168600
#	188700
#	205650
#	223050
#
# Disc length: 3230 seconds
#
# Revision: 1
# Processed by: cddbd v1.5.1PL2 Copyright (c) Steve Scherf et al.
# Submitted via: freeDBTagger 0.8.2.1
#
DISCID=940c9c0c
DTITLE=酒井法子 - Asia 2000 Words Of Love [CD2]
DYEAR=1996
DGENRE=misc
TTITLE0=bouquet
TTITLE1=きみの存在
TTITLE2=フォトグラフ
TTITLE3=誘われて…
TTITLE4=WORDS OF LOVE
TTITLE5=Miss You
TTITLE6=Miracle
TTITLE7=Here I am-泣きたい時は泣けばいい-
TTITLE8=涙色
TTITLE9=碧いうさぎ
TTITLE10=鏡のドレス
TTITLE11=PURE
EXTD=
EXTT0=
EXTT1=
EXTT2=
EXTT3=
EXTT4=
EXTT5=
EXTT6=
EXTT7=
EXTT8=
EXTT9=
EXTT10=
EXTT11=
PLAYORDER=
